<svg xmlns="http://www.w3.org/2000/svg" fill="none" viewBox="0 0 510 511" id="Menu"><path fill="#ffffff" fill-rule="evenodd" d="M331 303C325.477 303 321 298.523 321 293 321 287.477 325.477 283 331 283 336.523 283 341 287.477 341 293 341 298.523 336.523 303 331 303zM356 293C356 306.807 344.807 318 331 318 317.193 318 306 306.807 306 293 306 279.193 317.193 268 331 268 344.807 268 356 279.193 356 293zM256 303C250.477 303 246 298.523 246 293 246 287.477 250.477 283 256 283 261.523 283 266 287.477 266 293 266 298.523 261.523 303 256 303zM281 293C281 306.807 269.807 318 256 318 242.193 318 231 306.807 231 293 231 279.193 242.193 268 256 268 269.807 268 281 279.193 281 293zM181 303C175.477 303 171 298.523 171 293 171 287.477 175.477 283 181 283 186.523 283 191 287.477 191 293 191 298.523 186.523 303 181 303zM206 293C206 306.807 194.807 318 181 318 167.193 318 156 306.807 156 293 156 279.193 167.193 268 181 268 194.807 268 206 279.193 206 293zM331 228C325.477 228 321 223.523 321 218 321 212.477 325.477 208 331 208 336.523 208 341 212.477 341 218 341 223.523 336.523 228 331 228zM356 218C356 231.807 344.807 243 331 243 317.193 243 306 231.807 306 218 306 204.193 317.193 193 331 193 344.807 193 356 204.193 356 218zM256 228C250.477 228 246 223.523 246 218 246 212.477 250.477 208 256 208 261.523 208 266 212.477 266 218 266 223.523 261.523 228 256 228zM281 218C281 231.807 269.807 243 256 243 242.193 243 231 231.807 231 218 231 204.193 242.193 193 256 193 269.807 193 281 204.193 281 218zM181 228C175.477 228 171 223.523 171 218 171 212.477 175.477 208 181 208 186.523 208 191 212.477 191 218 191 223.523 186.523 228 181 228zM206 218C206 231.807 194.807 243 181 243 167.193 243 156 231.807 156 218 156 204.193 167.193 193 181 193 194.807 193 206 204.193 206 218z" clip-rule="evenodd" class="color000000 svgShape"></path></svg>